<mxfile host="65bd71144e">
    <diagram id="UnDrSitDGJ2Xrjaa2rQp" name="Страница 1">
        <mxGraphModel dx="589" dy="1000" grid="1" gridSize="10" guides="1" tooltips="1" connect="1" arrows="1" fold="1" page="1" pageScale="1" pageWidth="1169" pageHeight="827" math="0" shadow="0">
            <root>
                <mxCell id="0"/>
                <mxCell id="1" parent="0"/>
                <mxCell id="8" style="edgeStyle=none;html=1;exitX=0.5;exitY=1;exitDx=0;exitDy=0;entryX=0.5;entryY=0;entryDx=0;entryDy=0;fontSize=14;" edge="1" parent="1" source="2" target="3">
                    <mxGeometry relative="1" as="geometry"/>
                </mxCell>
                <mxCell id="2" value="&lt;div style=&quot;text-align: left&quot;&gt;&lt;span style=&quot;font-size: 18px&quot;&gt;Sample = '1*16+10*2-3'&lt;/span&gt;&lt;/div&gt;&lt;font style=&quot;font-size: 18px&quot;&gt;&lt;div style=&quot;text-align: left&quot;&gt;&lt;span&gt;res = 0&lt;/span&gt;&lt;/div&gt;&lt;div style=&quot;text-align: left&quot;&gt;result = 0&lt;span&gt;&lt;br&gt;&lt;/span&gt;&lt;/div&gt;&lt;/font&gt;" style="rounded=1;whiteSpace=wrap;html=1;" vertex="1" parent="1">
                    <mxGeometry y="-40" width="560" height="90" as="geometry"/>
                </mxCell>
                <mxCell id="10" style="edgeStyle=none;html=1;exitX=0.5;exitY=1;exitDx=0;exitDy=0;fontSize=14;" edge="1" parent="1" source="3">
                    <mxGeometry relative="1" as="geometry">
                        <mxPoint x="240" y="120" as="targetPoint"/>
                    </mxGeometry>
                </mxCell>
                <mxCell id="3" value="List_sample = Sample.split()" style="shape=parallelogram;perimeter=parallelogramPerimeter;whiteSpace=wrap;html=1;fixedSize=1;fontSize=18;" vertex="1" parent="1">
                    <mxGeometry y="60" width="560" height="40" as="geometry"/>
                </mxCell>
                <mxCell id="7" value="&lt;div style=&quot;color: rgb(212 , 212 , 212) ; background-color: rgb(30 , 30 , 30) ; font-family: &amp;#34;droid sans mono&amp;#34; , &amp;#34;monospace&amp;#34; , monospace ; font-size: 14px ; line-height: 19px&quot;&gt;&lt;span style=&quot;color: #c586c0&quot;&gt;if&lt;/span&gt; &lt;span style=&quot;color: #9cdcfe&quot;&gt;List_sample&lt;/span&gt;.acount(&lt;span style=&quot;color: #ce9178&quot;&gt;'*'&lt;/span&gt;) &amp;gt; &lt;span style=&quot;color: #b5cea8&quot;&gt;0&lt;/span&gt; &lt;span style=&quot;color: #569cd6&quot;&gt;and&lt;/span&gt;  &lt;span style=&quot;color: #9cdcfe&quot;&gt;List_sample&lt;/span&gt;.acount(&lt;span style=&quot;color: #ce9178&quot;&gt;'/'&lt;/span&gt;) &amp;gt; &lt;span style=&quot;color: #b5cea8&quot;&gt;0&lt;/span&gt;:&lt;/div&gt;" style="rhombus;whiteSpace=wrap;html=1;fontSize=18;" vertex="1" parent="1">
                    <mxGeometry x="10" y="120" width="560" height="50" as="geometry"/>
                </mxCell>
                <mxCell id="11" value="&lt;div style=&quot;text-align: justify&quot;&gt;&lt;span&gt;While&amp;nbsp;&lt;/span&gt;&lt;font&gt;List_sample.acount('*') &amp;gt; 0 and&amp;nbsp;&lt;/font&gt;&lt;span&gt;List_sample.acount('\') &amp;gt; 0&lt;/span&gt;&lt;/div&gt;&lt;font style=&quot;font-size: 14px&quot;&gt;&lt;div style=&quot;text-align: justify&quot;&gt;&lt;span&gt;&lt;span style=&quot;white-space: pre&quot;&gt;&#9;&lt;/span&gt;indexx&amp;nbsp;=&amp;nbsp;List_sample.index()&lt;/span&gt;&lt;/div&gt;&lt;div style=&quot;text-align: justify&quot;&gt;&lt;span&gt;&lt;span style=&quot;white-space: pre&quot;&gt;&#9;&lt;/span&gt;res = int(List_sample[indexx] -1) + int(List_sample[inldex + 1]&lt;br&gt;&lt;/span&gt;&lt;/div&gt;&lt;div style=&quot;text-align: justify&quot;&gt;result = res&lt;/div&gt;&lt;div style=&quot;text-align: justify&quot;&gt;&lt;span&gt;&amp;nbsp; &amp;nbsp; &amp;nbsp;&lt;/span&gt;&lt;/div&gt;&lt;div style=&quot;text-align: justify&quot;&gt;&lt;span&gt;&amp;nbsp; &amp;nbsp; &amp;nbsp; &amp;nbsp;&amp;nbsp;&lt;/span&gt;&lt;/div&gt;&lt;/font&gt;" style="shape=parallelogram;perimeter=parallelogramPerimeter;whiteSpace=wrap;html=1;fixedSize=1;fontSize=14;" vertex="1" parent="1">
                    <mxGeometry x="10" y="190" width="560" height="160" as="geometry"/>
                </mxCell>
            </root>
        </mxGraphModel>
    </diagram>
</mxfile>